PathFileType	4	(X/Y/Z)	4_coords_data.trc
DataRate	CameraRate	NumFrames	NumMarkers	Units	OrigDataRate	OrigDataStartFrame	OrigNumFrames
30.0	30.0	7	21	m	30.0	10	47
Frame#	Time	THUMB_TIP	THUMB_IP	THUMB_MCP	THUMB_CMC	INDEX_TIP	INDEX_DIP	INDEX_PIP	INDEX_MCP	MIDDLE_TIP	MIDDLE_DIP	MIDDLE_PIP	MIDDLE_MCP	RING_TIP	RING_DIP	RING_PIP	RING_MCP	PINKY_TIP	PINKY_DIP	PINKY_PIP	PINKY_MCP	WRIST
X1	Y1	Z1	X2	Y2	Z2	X3	Y3	Z3	X4	Y4	Z4	X5	Y5	Z5	X6	Y6	Z6	X7	Y7	Z7	X8	Y8	Z8	X9	Y9	Z9	X10	Y10	Z10	X11	Y11	Z11	X12	Y12	Z12	X13	Y13	Z13	X14	Y14	Z14	X15	Y15	Z15	X16	Y16	Z16	X17	Y17	Z17	X18	Y18	Z18	X19	Y19	Z19	X20	Y20	Z20	X21	Y21	Z21
9	0.3	0.008961560249328614	-0.03248889923095703	1.03977001953125	-0.016589599609375	-0.030744699478149413	1.0556300048828124	-0.035271598815917966	-0.0392869987487793	1.0830899658203126	-0.05739199829101563	-0.019989900588989258	1.1028199462890624	-0.022920400619506835	-0.06485230255126953	0.9739119873046875	-0.03476919937133789	-0.062433799743652346	0.9946669921875	-0.048809600830078126	-0.05948149871826172	1.0160800170898439	-0.07636969757080078	-0.054121101379394534	1.0480699462890626	-0.04196760177612305	-0.03393009948730469	1.0626199951171875	-0.030140600204467773	-0.03337929916381836	1.0466800537109375	-0.039590000152587894	-0.03481029891967773	1.0185399780273436	-0.08308249664306641	-0.03140080070495605	1.0378900146484376	-0.035781200408935544	-0.018597299575805665	1.0698299560546876	-0.026276599884033202	-0.01636720085144043	1.0555400390625	-0.029274599075317383	-0.011991499900817871	1.029199951171875	-0.0751875	-0.007631889820098877	1.0380699462890626	-0.03695240020751953	0.023047800064086913	0.9743159790039062	-0.0416156005859375	0.018966299057006836	0.9957780151367187	-0.04768880081176758	0.014787599563598633	1.0150900268554688	-0.05569580078125	0.008693739891052247	1.045219970703125	-0.09188529968261719	-0.003263309955596924	1.12252001953125
10	0.3333333333333333	0.009011790275573731	-0.032899700164794925	1.0399000244140626	-0.016540000915527344	-0.031138099670410157	1.0556700439453126	-0.03526229858398437	-0.0396411018371582	1.083030029296875	-0.058024600982666014	-0.020231100082397462	1.1039300537109376	-0.022663000106811524	-0.06509190368652344	0.9739600219726563	-0.03458089828491211	-0.06265179824829102	0.994698974609375	-0.04868159866333008	-0.059698799133300784	1.0160800170898439	-0.07635479736328125	-0.054332099914550784	1.04793994140625	-0.04182490158081055	-0.03414630126953125	1.0624300537109375	-0.030117000579833984	-0.03361819839477539	1.04675	-0.03950019836425781	-0.03499860000610352	1.0185499877929687	-0.0830531005859375	-0.03160770034790039	1.037800048828125	-0.03485110092163086	-0.01872130012512207	1.06902001953125	-0.02651020050048828	-0.01662579917907715	1.0560799560546874	-0.029211799621582032	-0.012228899955749512	1.029260009765625	-0.07514800262451173	-0.0078675799369812	1.038030029296875	-0.03653710174560547	0.022367399215698244	0.974302978515625	-0.04129809951782227	0.01840760040283203	0.9958189697265625	-0.04748239898681641	0.0143302001953125	1.0151199951171874	-0.055661701202392576	0.008472789764404296	1.0451800537109375	-0.09182579803466796	-0.003361160039901733	1.122260009765625
11	0.36666666666666664	0.00897704029083252	-0.033152198791503905	1.0398299560546875	-0.016577899932861326	-0.031431800842285154	1.0555899658203125	-0.03538209915161133	-0.040008598327636716	1.0832099609375	-0.058012500762939456	-0.020566699981689453	1.103760009765625	-0.022662099838256837	-0.06527700042724609	0.9739569702148437	-0.03462919998168945	-0.06283950042724609	0.994677001953125	-0.0487229995727539	-0.059879501342773436	1.0160800170898439	-0.07629440307617187	-0.054553798675537106	1.0479300537109375	-0.04175419998168945	-0.03432519912719727	1.0620899658203125	-0.030137300491333008	-0.033757801055908206	1.0469200439453126	-0.03954359817504883	-0.03512300109863281	1.0185499877929687	-0.08308650207519531	-0.031790700912475586	1.037800048828125	-0.03540530014038086	-0.018945199966430664	1.0695	-0.026501899719238282	-0.0168572998046875	1.05602001953125	-0.029151399612426757	-0.01239579963684082	1.0293800048828126	-0.07506880187988281	-0.008112469673156738	1.0378499755859374	-0.03627320098876953	0.021604700088500975	0.9741890258789062	-0.04111439895629883	0.01782539939880371	0.99572802734375	-0.04735020065307617	0.013888299942016602	1.0150800170898437	-0.05565390014648437	0.008292119979858398	1.04522998046875	-0.09208149719238282	-0.0034840900897979733	1.1228399658203125
12	0.4	0.008869790077209472	-0.03340489959716797	1.039719970703125	-0.016658000946044922	-0.03158810043334961	1.0555699462890624	-0.035480098724365236	-0.04012310028076172	1.0829000244140625	-0.0580906982421875	-0.020729299545288085	1.1040999755859375	-0.022755199432373047	-0.06529039764404297	0.973875	-0.03474319839477539	-0.06291410064697266	0.9946519775390625	-0.048863700866699215	-0.059995399475097654	1.01602001953125	-0.07652919769287109	-0.05467929840087891	1.0479100341796874	-0.0417504997253418	-0.03460160064697266	1.062	-0.030264699935913086	-0.03405110168457031	1.046739990234375	-0.03958760070800781	-0.03523939895629883	1.018469970703125	-0.0832333984375	-0.03196080017089844	1.037800048828125	-0.034465999603271485	-0.019154899597167967	1.0690999755859374	-0.02652389907836914	-0.017019599914550782	1.05602001953125	-0.029238100051879882	-0.012535699844360352	1.0294200439453125	-0.0752780990600586	-0.008255189895629882	1.0379599609375	-0.03612060165405274	0.020991199493408202	0.974156982421875	-0.041005599975585935	0.017342199325561525	0.9956710205078125	-0.04730649948120117	0.01352299976348877	1.0149600219726562	-0.05572900009155273	0.008080240249633788	1.045239990234375	-0.09199530029296875	-0.0036508600711822508	1.1226700439453126
13	0.43333333333333335	0.008741920471191406	-0.0335005989074707	1.0395899658203125	-0.016702400207519532	-0.031757299423217776	1.0554599609375	-0.03570729827880859	-0.040410400390625	1.0830799560546875	-0.05815810012817383	-0.02072159957885742	1.1036099853515624	-0.02269969940185547	-0.06525189971923828	0.9739359741210938	-0.03475329971313477	-0.06288619995117188	0.9946309814453125	-0.048920501708984376	-0.05999660110473633	1.0159600219726563	-0.07663369750976562	-0.05479600143432617	1.0477900390625	-0.04207899856567383	-0.034647499084472656	1.0620899658203125	-0.030288000106811524	-0.03404309844970703	1.0466199951171875	-0.03977880096435547	-0.035242698669433595	1.0183699951171874	-0.0833375015258789	-0.03202740097045898	1.03768994140625	-0.0358843994140625	-0.019330699920654296	1.0695	-0.026736400604248048	-0.016989200592041016	1.0561400146484374	-0.029346200942993166	-0.012547599792480468	1.0293800048828126	-0.07546510314941406	-0.00830130958557129	1.0379300537109375	-0.035940101623535156	0.020601999282836913	0.9741099853515625	-0.04090810012817383	0.017038400650024415	0.9956699829101563	-0.047347698211669925	0.013314999580383301	1.0149600219726562	-0.05585540008544922	0.00802593994140625	1.0453399658203124	-0.09195870208740234	-0.003866280078887939	1.1220699462890624
14	0.4666666666666667	0.008682860374450683	-0.03342660140991211	1.0395	-0.01680820083618164	-0.03169849967956543	1.0553900146484374	-0.03558589935302734	-0.04018090057373047	1.08275	-0.05806990051269531	-0.020633800506591797	1.10322998046875	-0.02229800033569336	-0.0649666976928711	0.9741329956054687	-0.03448080062866211	-0.06266320037841797	0.9947839965820312	-0.04883580017089844	-0.05985800170898437	1.016010009765625	-0.07680829620361328	-0.054701698303222655	1.047780029296875	-0.04224309921264648	-0.034625701904296875	1.06222998046875	-0.03041909980773926	-0.03392779922485351	1.04656005859375	-0.03993560028076172	-0.035098701477050784	1.018219970703125	-0.08347019958496094	-0.031937000274658206	1.0376099853515626	-0.03562409973144531	-0.019231300354003906	1.0691099853515624	-0.026733999252319337	-0.01703089904785156	1.056199951171875	-0.029379899978637696	-0.012478899955749512	1.0293399658203124	-0.07547789764404297	-0.00824390983581543	1.0378199462890625	-0.03570050048828125	0.02067970085144043	0.9741749877929687	-0.040767799377441405	0.017116199493408202	0.9956389770507813	-0.047258899688720706	0.013382900238037109	1.0149199829101563	-0.0559630012512207	0.008124309539794922	1.0451400146484375	-0.09219319915771484	-0.003730119943618774	1.122260009765625
15	0.5	0.008729619979858399	-0.03339080047607422	1.0395699462890624	-0.016787599563598633	-0.0315403995513916	1.0553900146484374	-0.03556940078735352	-0.04007789993286133	1.08277001953125	-0.058149600982666014	-0.020605199813842772	1.10325	-0.021945199966430663	-0.06481749725341797	0.9744420166015625	-0.03422140121459961	-0.06253739929199219	0.994958984375	-0.048719799041748044	-0.05972100067138672	1.0161099853515625	-0.07674900054931641	-0.05456029891967774	1.04768994140625	-0.042458499908447266	-0.03453670120239258	1.06231005859375	-0.030319400787353516	-0.03386059951782226	1.046550048828125	-0.039875900268554684	-0.0349749984741211	1.0182999877929688	-0.08343890380859376	-0.03175600051879883	1.0375799560546874	-0.03535749816894531	-0.01904570007324219	1.0698499755859374	-0.026771699905395508	-0.01697260093688965	1.05625	-0.029351900100708008	-0.012372699737548828	1.0294100341796875	-0.07540660095214843	-0.008061969757080078	1.0378900146484376	-0.03536819839477539	0.020813899993896483	0.9743660278320313	-0.04052090072631836	0.017243099212646485	0.9957979736328125	-0.047078399658203124	0.013515800476074218	1.01502001953125	-0.05587789916992188	0.00832153034210205	1.045300048828125	-0.09218109893798829	-0.003686749935150146	1.12252001953125
